<svg width="38" height="38" viewBox="0 0 38 38" fill="none" xmlns="http://www.w3.org/2000/svg">
<path d="M37.33 13.0655V9.3325H27.9975V0H24.2645V9.3325H20.5315V0H16.7985V9.3325H13.0655V0H9.3325V9.3325H0V13.0655H9.3325V16.7985H0V20.5315H9.3325V24.2645H0V27.9975H9.3325V37.33H13.0655V27.9975H16.7985V37.33H20.5315V27.9975H24.2645V37.33H27.9975V27.9975H37.33V24.2645H27.9975V20.5315H37.33V16.7985H27.9975V13.0655H37.33Z" fill="#FF9800"/>
<path d="M3.73303 7.46591V29.8639C3.73303 31.9171 5.41288 33.5969 7.46603 33.5969H29.864C31.9172 33.5969 33.597 31.9171 33.597 29.8639V7.46591C33.597 5.41276 31.9172 3.73291 29.864 3.73291H7.46603C5.41288 3.73291 3.73303 5.41276 3.73303 7.46591Z" fill="#4CAF50"/>
<path d="M25.1977 25.1976H12.1322C11.1057 25.1976 10.2657 24.3577 10.2657 23.3311V13.9986C10.2657 12.972 11.1057 12.1321 12.1322 12.1321H25.1977C26.2243 12.1321 27.0642 12.972 27.0642 13.9986V23.3311C27.0642 24.3577 26.2243 25.1976 25.1977 25.1976Z" fill="#37474F"/>
</svg>
