<svg width="102" height="102" viewBox="0 0 102 102" fill="none" xmlns="http://www.w3.org/2000/svg">
<g filter="url(#filter0_d_33_1437)">
<circle cx="45.9955" cy="46.8488" r="35.4384" fill="white"/>
</g>
<path d="M45.9956 31.0155C37.2146 31.0155 30.0961 38.1341 30.0961 46.915C30.0961 54.7905 35.8282 61.3128 43.3439 62.5758V50.2321H39.5084V45.7901H43.3439V42.5148C43.3439 38.7144 45.665 36.6435 49.0557 36.6435C50.6796 36.6435 52.0751 36.7645 52.4803 36.8178V40.7901L50.1286 40.7913C48.285 40.7913 47.9296 41.6672 47.9296 42.9529V45.7878H52.3285L51.7548 50.2298H47.9296V62.682C55.7962 61.7245 61.8949 55.0361 61.8949 46.9105C61.8949 38.1341 54.7764 31.0155 45.9956 31.0155Z" fill="#076FE5"/>
<defs>
<filter id="filter0_d_33_1437" x="0.557129" y="0.4104" width="100.877" height="100.877" filterUnits="userSpaceOnUse" color-interpolation-filters="sRGB">
<feFlood flood-opacity="0" result="BackgroundImageFix"/>
<feColorMatrix in="SourceAlpha" type="matrix" values="0 0 0 0 0 0 0 0 0 0 0 0 0 0 0 0 0 0 127 0" result="hardAlpha"/>
<feOffset dx="5" dy="4"/>
<feGaussianBlur stdDeviation="7.5"/>
<feColorMatrix type="matrix" values="0 0 0 0 0.2 0 0 0 0 0.2 0 0 0 0 0.2 0 0 0 0.05 0"/>
<feBlend mode="normal" in2="BackgroundImageFix" result="effect1_dropShadow_33_1437"/>
<feBlend mode="normal" in="SourceGraphic" in2="effect1_dropShadow_33_1437" result="shape"/>
</filter>
</defs>
</svg>
