<svg width="19" height="20" viewBox="0 0 19 20" fill="none" xmlns="http://www.w3.org/2000/svg">
<g clip-path="url(#clip0_135_2)">
<path d="M7.91145 0.572079C8.33815 0.204272 8.87995 0.00231934 9.44 0.00231934C10.0001 0.00231934 10.5418 0.204272 10.9686 0.572079L18.0486 6.67377C18.3092 6.8984 18.5185 7.17778 18.662 7.49257C18.8056 7.80735 18.88 8.15002 18.88 8.49684V18.0392C18.88 18.5274 18.6887 18.9956 18.3483 19.3408C18.0078 19.686 17.5461 19.88 17.0646 19.88H14.16C13.6785 19.88 13.2168 19.686 12.8763 19.3408C12.5359 18.9956 12.3446 18.5274 12.3446 18.0392V13.2533C12.3446 12.8639 12.1925 12.4903 11.9216 12.2144C11.6506 11.9384 11.2829 11.7825 10.8988 11.7807H7.98043C7.59651 11.7827 7.22898 11.9387 6.95818 12.2146C6.68739 12.4906 6.53538 12.864 6.53538 13.2533V18.0392C6.53538 18.281 6.48843 18.5203 6.3972 18.7437C6.30596 18.967 6.17224 19.1699 6.00367 19.3408C5.8351 19.5118 5.63497 19.6474 5.41472 19.7399C5.19446 19.8324 4.9584 19.88 4.72 19.88H1.81538C1.33391 19.88 0.872164 19.686 0.531714 19.3408C0.191263 18.9956 0 18.5274 0 18.0392V8.49684C1.91058e-05 8.15002 0.0743861 7.80735 0.217951 7.49257C0.361515 7.17778 0.570846 6.8984 0.831446 6.67377L7.91145 0.572079Z" fill="black"/>
</g>
<defs>
<clipPath id="clip0_135_2">
<rect width="18.88" height="19.88" fill="white"/>
</clipPath>
</defs>
</svg>
