<svg width="101" height="102" viewBox="0 0 101 102" fill="none" xmlns="http://www.w3.org/2000/svg">
<g filter="url(#filter0_d_33_1441)">
<circle cx="45.5282" cy="46.8488" r="35.4384" fill="white"/>
</g>
<g clip-path="url(#clip0_33_1441)">
<path d="M59.8579 44.1538L47.2133 44.1532C46.6549 44.1532 46.2023 44.6057 46.2023 45.1641V49.2035C46.2023 49.7617 46.6549 50.2144 47.2132 50.2144H54.3339C53.5542 52.2379 52.0989 53.9325 50.2422 55.0093L53.2784 60.2653C58.1489 57.4485 61.0284 52.5061 61.0284 46.9735C61.0284 46.1857 60.9703 45.6225 60.8542 44.9884C60.7659 44.5067 60.3477 44.1538 59.8579 44.1538Z" fill="#167EE6"/>
<path d="M45.528 56.2833C42.0433 56.2833 39.0012 54.3794 37.3673 51.562L32.1115 54.5914C34.7862 59.2269 39.7967 62.3486 45.528 62.3486C48.3396 62.3486 50.9926 61.5915 53.278 60.2723V60.2651L50.2418 55.009C48.853 55.8145 47.2458 56.2833 45.528 56.2833Z" fill="#12B347"/>
<path d="M53.2782 60.2725V60.2653L50.242 55.0092C48.8531 55.8147 47.2461 56.2835 45.5282 56.2835V62.3488C48.3398 62.3488 50.9929 61.5917 53.2782 60.2725Z" fill="#0F993E"/>
<path d="M36.0934 46.8486C36.0934 45.1309 36.5622 43.5239 37.3675 42.1352L32.1117 39.1058C30.7852 41.384 30.0282 44.0297 30.0282 46.8486C30.0282 49.6674 30.7852 52.3132 32.1117 54.5914L37.3675 51.5619C36.5622 50.1732 36.0934 48.5662 36.0934 46.8486Z" fill="#FFD500"/>
<path d="M45.528 37.414C47.8004 37.414 49.8877 38.2214 51.5181 39.5645C51.9203 39.8959 52.5049 39.8719 52.8733 39.5035L55.7353 36.6415C56.1533 36.2234 56.1236 35.5392 55.677 35.1518C52.9454 32.7821 49.3913 31.3488 45.528 31.3488C39.7967 31.3488 34.7862 34.4704 32.1115 39.106L37.3673 42.1354C39.0012 39.3179 42.0433 37.414 45.528 37.414Z" fill="#FF4B26"/>
<path d="M51.5182 39.5645C51.9204 39.8959 52.5051 39.8719 52.8735 39.5035L55.7355 36.6415C56.1535 36.2234 56.1237 35.5392 55.6772 35.1518C52.9456 32.782 49.3915 31.3488 45.5282 31.3488V37.414C47.8005 37.414 49.8879 38.2214 51.5182 39.5645Z" fill="#D93F21"/>
</g>
<defs>
<filter id="filter0_d_33_1441" x="0.0898438" y="0.4104" width="100.877" height="100.877" filterUnits="userSpaceOnUse" color-interpolation-filters="sRGB">
<feFlood flood-opacity="0" result="BackgroundImageFix"/>
<feColorMatrix in="SourceAlpha" type="matrix" values="0 0 0 0 0 0 0 0 0 0 0 0 0 0 0 0 0 0 127 0" result="hardAlpha"/>
<feOffset dx="5" dy="4"/>
<feGaussianBlur stdDeviation="7.5"/>
<feColorMatrix type="matrix" values="0 0 0 0 0.2 0 0 0 0 0.2 0 0 0 0 0.2 0 0 0 0.05 0"/>
<feBlend mode="normal" in2="BackgroundImageFix" result="effect1_dropShadow_33_1441"/>
<feBlend mode="normal" in="SourceGraphic" in2="effect1_dropShadow_33_1441" result="shape"/>
</filter>
<clipPath id="clip0_33_1441">
<rect width="31" height="31" fill="white" transform="translate(30.0282 31.3488)"/>
</clipPath>
</defs>
</svg>
