<svg width="17" height="17" viewBox="0 0 17 17" fill="none" xmlns="http://www.w3.org/2000/svg">
<path fill-rule="evenodd" clip-rule="evenodd" d="M5.61344 2.14334H11.3934C13.6534 2.14334 15.1668 3.73001 15.1668 6.09001V11.5373C15.1668 13.89 13.6534 15.4767 11.3934 15.4767H5.61344C3.35344 15.4767 1.83344 13.89 1.83344 11.5373V6.09001C1.83344 3.73001 3.35344 2.14334 5.61344 2.14334ZM8.12013 10.8033L11.2868 7.63667C11.5135 7.41001 11.5135 7.04334 11.2868 6.81001C11.0601 6.58334 10.6868 6.58334 10.4601 6.81001L7.7068 9.56334L6.54013 8.39668C6.31346 8.17001 5.94013 8.17001 5.71346 8.39668C5.4868 8.62334 5.4868 8.99001 5.71346 9.22334L7.30013 10.8033C7.41346 10.9167 7.56013 10.97 7.7068 10.97C7.86013 10.97 8.00679 10.9167 8.12013 10.8033Z" fill="#F67952"/>
</svg>
